<svg style="fill: #ffcc54" xmlns="http://www.w3.org/2000/svg" xmlns:xlink="http://www.w3.org/1999/xlink" version="1.1" x="0px" y="0px" viewBox="0 0 100 115" enable-background="new 0 0 100 100" xml:space="preserve">
<g><path d="M80.9,65l-62,6c-0.576,0-1.238,0.742-0.8,1.4l4,8c0.2,0.3,0.5,0.6,0.9,0.6h50c0.4,0,0.7-0.2,0.9-0.5l8-14   C82.258,65.963,81.686,65,80.9,65z M72.4,79H23.6l-3.1-6.1l58.6-5.7L72.4,79z M25.3,68.4C25.3,68.4,25.4,68.4,25.3,68.4l50.5-4.9   c0.56,0,1.149-0.649,0.9-1.4C69.918,45.521,56.712,32.494,43,26.4V20c0-0.748-0.555-1-1.3-1l-10,3c-0.984,0.492-0.874,1.613-0.1,2   l9.4,3.7v11.1L24.5,66.9C24.061,67.559,24.658,68.4,25.3,68.4z M74.2,61.7L44.5,64.6c4.629-15.827,1.341-27.382-0.9-35.6   C57.3,36,68.1,47.5,74.2,61.7z M43,62.7V34.1C45.5,43.5,45.5,53.3,43,62.7z M35,23.1l6-1.8v4.2L35,23.1z M41,42.7v22.2l-13.8,1.3   L41,42.7z"/></g>
<!-- <text x="10" y="95" fill="#ffcc54" font-size="3px" font-weight="bold" font-family="'Helvetica Neue', Helvetica, Arial-Unicode, Arial, Sans-serif">Created by Setyo Ari Wibowo from the Noun Project</text> -->
</svg>