<svg style="fill: #ffcc54" xmlns="http://www.w3.org/2000/svg" xmlns:xlink="http://www.w3.org/1999/xlink" version="1.1" x="0px" y="0px" viewBox="0 0 90 102.5" enable-background="new 0 0 90 90" xml:space="preserve">
<g><path d="M26,37.7c-0.9,0-1.7-0.7-1.7-1.7c0-0.9,0.7-1.7,1.7-1.7s1.7,0.7,1.7,1.7C27.6,37,26.9,37.7,26,37.7z M26,35.8   c-0.2,0-0.3,0.1-0.3,0.3c0,0.2,0.1,0.3,0.3,0.3c0.2,0,0.3-0.1,0.3-0.3C26.3,35.9,26.1,35.8,26,35.8z"/></g>
<g><path d="M32.6,37.7c-0.9,0-1.7-0.7-1.7-1.7c0-0.9,0.7-1.7,1.7-1.7c0.9,0,1.7,0.7,1.7,1.7C34.2,37,33.5,37.7,32.6,37.7z M32.6,35.8   c-0.2,0-0.3,0.1-0.3,0.3c0,0.2,0.1,0.3,0.3,0.3c0.2,0,0.3-0.1,0.3-0.3C32.8,35.9,32.7,35.8,32.6,35.8z"/></g>
<g><path d="M39.1,37.7c-0.9,0-1.7-0.7-1.7-1.7c0-0.9,0.7-1.7,1.7-1.7c0.9,0,1.7,0.7,1.7,1.7C40.8,37,40,37.7,39.1,37.7z M39.1,35.8   c-0.2,0-0.3,0.1-0.3,0.3c0,0.2,0.1,0.3,0.3,0.3c0.2,0,0.3-0.1,0.3-0.3C39.4,35.9,39.3,35.8,39.1,35.8z"/></g>
<g><path d="M45.7,37.7c-0.9,0-1.7-0.7-1.7-1.7c0-0.9,0.7-1.7,1.7-1.7c0.9,0,1.7,0.7,1.7,1.7C47.4,37,46.6,37.7,45.7,37.7z M45.7,35.8   c-0.2,0-0.3,0.1-0.3,0.3c0,0.2,0.1,0.3,0.3,0.3c0.2,0,0.3-0.1,0.3-0.3C46,35.9,45.9,35.8,45.7,35.8z"/></g>
<g><path d="M52.3,37.7c-0.9,0-1.7-0.7-1.7-1.7c0-0.9,0.7-1.7,1.7-1.7c0.9,0,1.7,0.7,1.7,1.7C54,37,53.2,37.7,52.3,37.7z M52.3,35.8   c-0.2,0-0.3,0.1-0.3,0.3c0,0.2,0.1,0.3,0.3,0.3s0.3-0.1,0.3-0.3C52.6,35.9,52.5,35.8,52.3,35.8z"/></g>
<g><path d="M58.9,37.7c-0.9,0-1.7-0.7-1.7-1.7c0-0.9,0.7-1.7,1.7-1.7c0.9,0,1.7,0.7,1.7,1.7C60.5,37,59.8,37.7,58.9,37.7z M58.9,35.8   c-0.2,0-0.3,0.1-0.3,0.3c0,0.2,0.1,0.3,0.3,0.3s0.3-0.1,0.3-0.3C59.2,35.9,59.1,35.8,58.9,35.8z"/></g>
<g>
<path d="M66.5,53.1h-1.4c0,1.5,1.2,2.8,2.8,2.8c1.5,0,2.8-1.2,2.8-2.8h-1.4c0,0.5-0.3,1-0.7,1.2v-1.8h1.6v-1.4h-1.6v-1   c0.6-0.3,1-0.8,1-1.5c0-0.9-0.7-1.7-1.7-1.7s-1.7,0.7-1.7,1.7c0,0.7,0.4,1.3,1,1.5v1h-1.5v1.4h1.5v1.8   C66.8,54.1,66.5,53.7,66.5,53.1z M67.9,48.4c0.2,0,0.3,0.1,0.3,0.3c0,0.2-0.1,0.3-0.3,0.3c-0.2,0-0.3-0.1-0.3-0.3   C67.6,48.5,67.7,48.4,67.9,48.4z"/>
<path d="M75.7,69c-0.6-0.8-1.4-1.8-3-1.8c-1.6,0-2.3,1-3,1.8c-0.6,0.8-1.1,1.3-1.9,1.3c-0.9,0-1.3-0.5-1.9-1.3   c-0.6-0.8-1.4-1.8-3-1.8c-1.6,0-2.3,1-3,1.8c-0.6,0.8-1.1,1.3-1.9,1.3c-0.8,0-1.3-0.5-1.9-1.3c-0.6-0.8-1.4-1.8-3-1.8c0,0,0,0,0,0   s0,0,0,0c-1.6,0-2.3,1-3,1.8c-0.6,0.8-1.1,1.3-1.9,1.3c-0.9,0-1.3-0.5-1.9-1.3c-0.6-0.8-1.4-1.8-3-1.8c0,0,0,0,0,0s0,0,0,0   c-1.6,0-2.3,1-3,1.8c-0.6,0.8-1.1,1.3-1.9,1.3c-0.9,0-1.3-0.5-1.9-1.3c-0.6-0.8-1.4-1.8-3-1.8v0c0,0,0,0,0,0c-1.6,0-2.3,1-3,1.8   c-0.6,0.8-1.1,1.3-1.9,1.3s-1.3-0.5-1.9-1.3c-0.6-0.8-1.4-1.8-3-1.8c-1.6,0-2.3,1-3,1.8c-0.6,0.8-1.1,1.3-1.9,1.3   c-0.9,0-1.3-0.5-1.9-1.3c-0.6-0.8-1.4-1.8-3-1.8v1.4c0.9,0,1.3,0.5,1.9,1.3c0.6,0.8,1.4,1.8,3,1.8c1.6,0,2.3-1,3-1.8   c0.6-0.8,1.1-1.3,1.9-1.3s1.3,0.5,1.9,1.3c0.6,0.8,1.4,1.8,3,1.8s2.3-1,3-1.8c0.6-0.8,1.1-1.3,1.9-1.3c0.9,0,1.3,0.5,1.9,1.3   c0.6,0.8,1.4,1.8,3,1.8c0,0,0,0,0,0c0,0,0,0,0,0c1.6,0,2.3-1,3-1.8c0.6-0.8,1.1-1.3,1.9-1.3c0.9,0,1.3,0.5,1.9,1.3   c0.6,0.8,1.4,1.8,3,1.8c1.6,0,2.3-1,3-1.8c0.6-0.8,1.1-1.3,1.9-1.3c0.8,0,1.3,0.5,1.9,1.3c0.6,0.8,1.4,1.8,3,1.8c0,0,0,0,0,0   c0,0,0,0,0,0v0c1.5,0,2.3-1,3-1.8c0.6-0.8,1.1-1.3,1.9-1.3c0.9,0,1.3,0.5,1.9,1.3c0.6,0.8,1.4,1.8,3,1.8c1.6,0,2.3-1,3-1.8   c0.6-0.8,1.1-1.3,1.9-1.3s1.3,0.5,1.9,1.3c0.6,0.8,1.4,1.8,3,1.8v-1.4C76.8,70.2,76.3,69.8,75.7,69z"/>
<path d="M73,44.5l-8.6-12.6H60V18.2h-8.1v13.7h-4.2V18.2h-8.1v13.7h-4.3V18.2h-8.1v13.7h-6.7l-1.5,6.8l-3.8,0l-1.5,5.8h-3L9.3,51   H6.4c-0.7,0-1.2,0.5-1.2,1.2c-0.2,2.6,1.3,4.3,2.7,6c1.4,1.7,2.8,3.4,2.8,6.1c-0.5,0.5-0.9,0.8-1.5,0.8c-0.9,0-1.3-0.5-1.9-1.3   c-0.6-0.8-1.4-1.8-3-1.8v1.4c0.9,0,1.3,0.5,1.9,1.3c0.6,0.8,1.4,1.8,3,1.8c1.6,0,2.3-1,3-1.8c0.6-0.8,1.1-1.3,1.9-1.3   s1.3,0.5,1.9,1.3c0.6,0.8,1.4,1.8,3,1.8c1.6,0,2.3-1,3-1.8c0.3-0.4,0.6-0.7,0.9-0.9c0.3-0.2,0.6-0.3,1-0.3c0.2,0,0.4,0,0.6,0.1   c0.5,0.2,0.9,0.6,1.3,1.2c0.6,0.8,1.4,1.8,3,1.8c0,0,0,0,0,0c0,0,0,0,0,0c0,0,0,0,0,0c0,0,0,0,0,0c1.6,0,2.3-1,3-1.8   c0.6-0.8,1.1-1.3,1.9-1.3c0.6,0,1,0.3,1.4,0.7c0.2,0.2,0.3,0.4,0.5,0.6c0.6,0.8,1.4,1.8,3,1.8c0,0,0,0,0,0c0,0,0,0,0,0   c1.6,0,2.3-1,3-1.8c0.6-0.8,1.1-1.3,1.9-1.3c0.8,0,1.3,0.5,1.9,1.3c0.3,0.4,0.8,0.9,1.3,1.3c0.4,0.3,1,0.5,1.7,0.5c0,0,0,0,0,0   c0,0,0,0,0,0c0,0,0,0,0,0s0,0,0,0v0c1.5,0,2.3-1,3-1.8c0.6-0.8,1.1-1.3,1.9-1.3c0.7,0,1.1,0.3,1.5,0.8c0.1,0.1,0.3,0.3,0.4,0.5   c0.6,0.8,1.4,1.8,3,1.8c0,0,0,0,0,0c0,0,0,0,0,0c0,0,0,0,0,0c0,0,0,0,0,0v0c1.5,0,2.3-1,3-1.8c0.6-0.8,1.1-1.3,1.9-1.3   c0.8,0,1.3,0.5,1.9,1.3c0.6,0.8,1.4,1.8,3,1.8c0,0,0,0,0,0c0,0,0,0,0,0v0c1.5,0,2.3-1,3-1.8c0.6-0.8,1.1-1.3,1.9-1.3   s1.3,0.5,1.9,1.3c0.6,0.8,1.4,1.8,3,1.8v-1.4c-0.8,0-1.2-0.4-1.8-1.1c0.1-1.9,1.8-3.8,3.6-6c2.7-3.2,6.1-7.2,6.1-12.8v-0.7L73,44.5   z M53.3,19.6h5.3V22h-5.3V19.6z M53.3,23.4h5.3v8.5h-5.3V23.4z M41,19.6h5.3V22H41V19.6z M41,23.4h5.3v8.5H41V23.4z M28.7,19.6H34   V22h-5.3V19.6z M28.7,23.4H34v8.5h-5.3V23.4z M11.9,45.8h2.9l1.5-5.8l3.9,0l1.5-6.8h42l3.7,5.4H21.5V40h46.8l3,4.4l-11.7,0l0,0   H16.2v1.4h42.1L53.7,51h-43L11.9,45.8z M78.4,57.1c-1.7,2-3.2,3.8-3.8,5.7c-0.5-0.4-1.1-0.7-2-0.7c-1.6,0-2.3,1-3,1.8   c-0.6,0.8-1.1,1.3-1.9,1.3c-0.8,0-1.3-0.5-1.9-1.3c-0.6-0.8-1.4-1.8-3-1.8c0,0,0,0,0,0s0,0,0,0c-1.6,0-2.3,1-3,1.8   c-0.6,0.8-1.1,1.3-1.9,1.3c-0.8,0-1.3-0.5-1.9-1.3c-0.6-0.8-1.4-1.8-3-1.8c0,0,0,0,0,0s0,0,0,0c0,0,0,0,0,0c0,0,0,0,0,0   c-1.6,0-2.3,1-3,1.8c-0.6,0.8-1.1,1.3-1.9,1.3c-0.8,0-1.3-0.5-1.9-1.3c-0.6-0.8-1.4-1.8-3-1.8c0,0,0,0,0,0c0,0,0,0,0,0h0   c0,0,0,0,0,0s0,0,0,0c-1.6,0-2.3,1-3,1.8c-0.6,0.8-1.1,1.3-1.9,1.3c-0.9,0-1.3-0.5-1.9-1.3c-0.6-0.8-1.4-1.8-3-1.8v0c0,0,0,0,0,0   c0,0,0,0,0,0s0,0,0,0c0,0,0,0,0,0c0,0,0,0,0,0c-1.6,0-2.3,1-3,1.8c-0.6,0.8-1.1,1.3-1.9,1.3c-0.9,0-1.3-0.5-1.9-1.3   c-0.6-0.8-1.4-1.8-3-1.8v0c0,0,0,0,0,0h0c-1.6,0-2.3,1-3,1.8c-0.6,0.8-1.1,1.3-1.9,1.3c-0.2,0-0.4,0-0.6-0.1   c-0.5-0.2-0.9-0.6-1.3-1.2c-0.6-0.8-1.4-1.8-3-1.8v0c0,0,0,0,0,0c-0.9,0-1.6,0.4-2.1,0.8c-0.2-1.2-0.6-2.2-1.2-3.1h61.9v-1.4H9.8   c-0.3-0.4-0.6-0.8-0.9-1.1c-1.3-1.6-2.4-2.9-2.3-5h47.8l5.9-6.5l24,0C84,50.6,81,54,78.4,57.1z"/>
</g>
<!-- <text x="10" y="95" fill="#ffcc54" font-size="3px" font-weight="bold" font-family="'Helvetica Neue', Helvetica, Arial-Unicode, Arial, Sans-serif">Created by isaac claramunt from the Noun Project</text> -->
</svg>